<?xml version="1.0" encoding="iso-8859-1"?>
<!-- Generator: Adobe Illustrator 19.0.0, SVG Export Plug-In . SVG Version: 6.00 Build 0)  -->
<svg xmlns="http://www.w3.org/2000/svg" xmlns:xlink="http://www.w3.org/1999/xlink" version="1.1" id="Capa_1" x="0px" y="0px" viewBox="0 0 480 480" style="enable-background:new 0 0 480 480;" xml:space="preserve" width="512px" height="512px">
<g>
	<g>
		<g>
			<path d="M472,0H8C3.582,0,0,3.582,0,8v464c0,4.418,3.582,8,8,8h464c4.418,0,8-3.582,8-8V8C480,3.582,476.418,0,472,0z M464,464     H16V16h448V464z" fill="#006DF0"/>
			<path d="M330.344,429.656c3.124,3.123,8.188,3.123,11.312,0l67.88-67.88c3.123-3.124,3.123-8.188,0-11.312     c-3.124-3.123-8.188-3.123-11.312,0L344,404.688V120c0-4.418-3.582-8-8-8s-8,3.582-8,8v284.688l-54.224-54.224     c-3.178-3.07-8.242-2.982-11.312,0.196c-2.995,3.1-2.995,8.016,0,11.116L330.344,429.656z" fill="#006DF0"/>
			<path d="M336,96c4.418,0,8-3.582,8-8V56c0-4.418-3.582-8-8-8s-8,3.582-8,8v32C328,92.418,331.582,96,336,96z" fill="#006DF0"/>
			<path d="M56,136h160c4.418,0,8-3.582,8-8V96c0-4.418-3.582-8-8-8H56c-4.418,0-8,3.582-8,8v32C48,132.418,51.582,136,56,136z      M64,104h144v16H64V104z" fill="#006DF0"/>
			<path d="M56,200h128c4.418,0,8-3.582,8-8v-32c0-4.418-3.582-8-8-8H56c-4.418,0-8,3.582-8,8v32C48,196.418,51.582,200,56,200z      M64,168h112v16H64V168z" fill="#006DF0"/>
			<path d="M56,264h96c4.418,0,8-3.582,8-8v-32c0-4.418-3.582-8-8-8H56c-4.418,0-8,3.582-8,8v32C48,260.418,51.582,264,56,264z      M64,232h80v16H64V232z" fill="#006DF0"/>
			<path d="M56,328h64c4.418,0,8-3.582,8-8v-32c0-4.418-3.582-8-8-8H56c-4.418,0-8,3.582-8,8v32C48,324.418,51.582,328,56,328z      M64,296h48v16H64V296z" fill="#006DF0"/>
			<path d="M56,392h32c4.418,0,8-3.582,8-8v-32c0-4.418-3.582-8-8-8H56c-4.418,0-8,3.582-8,8v32C48,388.418,51.582,392,56,392z      M64,360h16v16H64V360z" fill="#006DF0"/>
		</g>
	</g>
</g>
<g>
</g>
<g>
</g>
<g>
</g>
<g>
</g>
<g>
</g>
<g>
</g>
<g>
</g>
<g>
</g>
<g>
</g>
<g>
</g>
<g>
</g>
<g>
</g>
<g>
</g>
<g>
</g>
<g>
</g>
</svg>
